# xmcd CD database file
#
# Track frame offsets:
#	150
#	22065
#	45220
#	65517
#
# Disc length: 1140 seconds
#
# Revision: 2
# Processed by: cddbd v1.4PL0 Copyright (c) Steve Scherf et al.
# Submitted via: NeoAudio 9.9.9
#
DISCID=2b047204
DTITLE=R. Kelly (featuring Ronald Isley and Ernie Isley - Down Low (Nobody Has to Know)
DYEAR=1996
DGENRE=R&B
TTITLE0=LP Version
TTITLE1=Soundtrack from the Motion Picture Video
TTITLE2=Live to Regret It Mix- Uncut (Blame It on the Mo')
TTITLE3=Live to Regret it Mix-Radion Version #1 (Blame It on the Mo')
EXTD=YEAR: 1996
EXTT0=
EXTT1=
EXTT2=
EXTT3=
PLAYORDER=
